<svg xmlns="http://www.w3.org/2000/svg" xmlns:xlink="http://www.w3.org/1999/xlink" width="500" zoomAndPan="magnify" viewBox="0 0 375 374.999991" height="500" preserveAspectRatio="xMidYMid meet" version="1.0"><defs><clipPath id="6e45ca5c90"><path d="M 44.421875 44.421875 L 330.613281 44.421875 L 330.613281 330.613281 L 44.421875 330.613281 Z M 44.421875 44.421875 " clip-rule="nonzero"/></clipPath></defs><g clip-path="url(#6e45ca5c90)"><path fill="#e8e8e8" d="M 316.859375 126.277344 C 350.628906 197.589844 320.082031 283.085938 248.761719 316.855469 C 177.445312 350.625 91.949219 320.078125 58.179688 248.757812 C 24.414062 177.441406 54.960938 91.945312 126.277344 58.175781 C 197.59375 24.410156 283.089844 54.957031 316.859375 126.277344 " fill-opacity="1" fill-rule="nonzero"/></g><path fill="#13364c" d="M 322.707031 187.515625 C 322.707031 262.179688 262.179688 322.703125 187.519531 322.703125 C 112.855469 322.703125 52.328125 262.179688 52.328125 187.515625 C 52.328125 112.851562 112.855469 52.328125 187.519531 52.328125 C 262.179688 52.328125 322.707031 112.851562 322.707031 187.515625 " fill-opacity="1" fill-rule="nonzero"/><path fill="#ffffff" d="M 164.828125 113.363281 C 164.828125 113.363281 133.011719 113.78125 133.421875 142.601562 C 133.835938 171.425781 139.621094 196.910156 149.125 211.113281 C 158.632812 225.316406 183.007812 262.496094 210.695312 258.734375 C 210.695312 258.734375 224.332031 255.808594 234.660156 249.125 L 201.191406 222.808594 C 201.191406 222.808594 191.273438 229.074219 185.074219 220.71875 C 178.878906 212.363281 159.457031 173.515625 159.457031 173.515625 C 159.457031 173.515625 154.085938 160.984375 166.070312 155.550781 Z M 164.828125 113.363281 " fill-opacity="1" fill-rule="nonzero"/><path fill="#ffffff" d="M 168.546875 113.363281 C 168.546875 113.363281 171.027344 112.527344 175.570312 115.035156 C 180.113281 117.539062 180.117188 119.625 180.117188 119.625 L 180.53125 148.453125 C 180.53125 148.453125 179.289062 150.125 177.636719 151.792969 C 175.984375 153.460938 170.613281 155.972656 169.785156 154.296875 C 168.960938 152.628906 168.546875 113.363281 168.546875 113.363281 Z M 168.546875 113.363281 " fill-opacity="1" fill-rule="nonzero"/><path fill="#ffffff" d="M 203.972656 219.726562 L 213.175781 214.871094 C 213.175781 214.871094 215.242188 214.453125 218.546875 216.539062 C 221.851562 218.632812 239.207031 232.417969 239.207031 232.417969 C 239.207031 232.417969 242.097656 234.925781 241.273438 237.851562 C 240.445312 240.773438 238.378906 247.039062 238.378906 247.039062 Z M 203.972656 219.726562 " fill-opacity="1" fill-rule="nonzero"/></svg>